Coordinates
version=1
nRows=26
nColumns=22
inDegrees=yes

Units are S.I. units (second, meters, Newtons, ...)
If the header above contains a line with 'inDegrees', this indicates whether rotational values are in degrees (yes) or radians (no).

endheader
time	pelvis_tilt	pelvis_list	pelvis_rotation	pelvis_tx	pelvis_ty	pelvis_tz	hip_flexion_r	hip_adduction_r	hip_rotation_r	knee_angle_r	ankle_angle_r	subtalar_angle_r	hip_flexion_l	hip_adduction_l	hip_rotation_l	knee_angle_l	ankle_angle_l	subtalar_angle_l	lumbar_extension	lumbar_bending	lumbar_rotation
      3.93000000	     -2.14830718	    -14.49615587	    -70.71393282	      0.25432624	      0.93782368	      0.24894779	    -12.71999035	     16.56348305	      6.02653046	    -16.04339240	     12.13585470	     -9.48531002	     17.26222083	    -13.61700343	     -8.04585660	    -33.48180850	     11.94360213	    -11.08369914	    -16.78518018	      8.63970260	     -4.40134754
      3.94000000	     -2.24929302	    -14.47894900	    -71.50952037	      0.25764541	      0.93673837	      0.25598009	    -13.05113685	     16.37135320	      6.50013065	    -16.60522430	     12.72764704	     -9.46922391	     17.21574826	    -13.17453089	     -8.74834681	    -31.10205515	     10.91447015	     -9.08941815	    -16.84854639	      8.64169428	     -4.14281200
      3.95000000	     -2.33474759	    -14.42017600	    -72.24465482	      0.26104360	      0.93551936	      0.26297156	    -13.31372185	     16.15313570	      6.84726523	    -17.19921004	     13.34245261	     -9.42919538	     17.17202663	    -12.64641759	     -9.19070661	    -28.78443326	     10.01094554	     -7.21777716	    -16.87131556	      8.62894846	     -3.95421530
      3.96000000	     -2.40211451	    -14.33025650	    -72.92324946	      0.26451425	      0.93420606	      0.26993890	    -13.52393202	     15.90830349	      7.05849934	    -17.81752725	     13.98386102	     -9.36531038	     17.11701860	    -12.04739879	     -9.34968759	    -26.54675126	      9.29846203	     -5.56046482	    -16.86556566	      8.59945024	     -3.81792274
      3.97000000	     -2.45232973	    -14.19386616	    -73.54290263	      0.26802239	      0.93280290	      0.27692335	    -13.67890956	     15.64533113	      7.21276698	    -18.44059558	     14.59230088	     -9.27735712	     17.07065944	    -11.40180229	     -9.26903048	    -24.41806070	      8.78265331	     -4.11585129	    -16.80870107	      8.54775928	     -3.77568047
      3.98000000	     -2.48363569	    -14.04527993	    -74.11889264	      0.27157865	      0.93137968	      0.28395115	    -13.81708787	     15.36046037	      7.26495742	    -19.06785197	     15.20787213	     -9.16868300	     16.99549761	    -10.73391715	     -8.96636178	    -22.43596656	      8.50470747	     -2.97072132	    -16.73924839	      8.48075373	     -3.76867483
      3.99000000	     -2.50579950	    -13.88582110	    -74.66609215	      0.27514281	      0.92996039	      0.29106261	    -13.94390127	     15.06410012	      7.25793962	    -19.69446636	     15.79352735	     -9.04617130	     16.90343718	    -10.08065497	     -8.51794211	    -20.65356938	      8.41788058	     -2.06328810	    -16.65462493	      8.40236161	     -3.79036546
      4.00000000	     -2.51889932	    -13.71352953	    -75.19143328	      0.27869769	      0.92855391	      0.29827636	    -14.06017534	     14.75981224	      7.24299845	    -20.32108564	     16.34311557	     -8.92051278	     16.81260856	     -9.45969099	     -8.01264767	    -19.12768232	      8.48903117	     -1.38484996	    -16.55298315	      8.31027316	     -3.85434699
      4.01000000	     -2.53816127	    -13.52047525	    -75.70300558	      0.28226987	      0.92716651	      0.30565787	    -14.16912507	     14.45926179	      7.25156492	    -20.92839153	     16.86639289	     -8.82732914	     16.75163755	     -8.89219678	     -7.52236709	    -17.91667538	      8.70620019	     -0.99240375	    -16.40246778	      8.22502174	     -3.92778648
      4.02000000	     -2.53602952	    -13.37475166	    -76.20120811	      0.28581840	      0.92593543	      0.31311101	    -14.32681934	     14.14880318	      7.26105050	    -21.54637196	     17.22880835	     -8.66647299	     16.63902863	     -8.36917612	     -7.04835572	    -17.01653977	      8.86842264	     -0.48448438	    -16.32099164	      8.12571596	     -4.00323561
      4.03000000	     -2.54056985	    -13.19440198	    -76.70931532	      0.28933211	      0.92474891	      0.32076521	    -14.46475375	     13.83558809	      7.32290553	    -22.14232984	     17.58406299	     -8.55658210	     16.56685168	     -7.90298815	     -6.66195117	    -16.44437715	      9.08191962	     -0.25171851	    -16.17455458	      8.01864457	     -4.06702175
      4.04000000	     -2.51427979	    -13.03083282	    -77.20828180	      0.29283936	      0.92371277	      0.32850470	    -14.61960918	     13.49420653	      7.41159181	    -22.75167523	     17.82303195	     -8.37841024	     16.46796052	     -7.45568443	     -6.30775873	    -16.16239750	      9.16971210	     -0.06848198	    -16.05488968	      7.88577967	     -4.12667421
      4.05000000	     -2.46512403	    -12.86077793	    -77.71040840	      0.29627079	      0.92280228	      0.33637290	    -14.77168681	     13.13111493	      7.55319773	    -23.36175205	     17.98134420	     -8.19828293	     16.37375945	     -7.03648536	     -6.00045292	    -16.16372299	      9.14423277	     -0.04103236	    -15.92223592	      7.71304790	     -4.16441064
      4.06000000	     -2.38678748	    -12.68476842	    -78.20418394	      0.29968179	      0.92204278	      0.34433644	    -14.91107633	     12.73590655	      7.71702837	    -23.98604718	     18.05451141	     -7.93521556	     16.26954836	     -6.62861351	     -5.73887832	    -16.37448681	      8.94807551	     -0.19534138	    -15.78051812	      7.50901741	     -4.21269618
      4.07000000	     -2.28626703	    -12.50248403	    -78.68073282	      0.30306529	      0.92143326	      0.35238813	    -15.03271082	     12.32107652	      7.90036533	    -24.62674936	     18.03567261	     -7.53848167	     16.16970685	     -6.23533837	     -5.50908138	    -16.76281959	      8.63231862	     -0.62699016	    -15.62182751	      7.27820349	     -4.28504885
      4.08000000	     -2.15728015	    -12.29223719	    -79.14367329	      0.30640745	      0.92097461	      0.36054985	    -15.12635849	     11.87814025	      8.12472016	    -25.25884054	     17.85880187	     -7.13809652	     16.10002106	     -5.84852723	     -5.34667944	    -17.28836439	      8.16893488	     -1.23309685	    -15.41673427	      7.00305002	     -4.34154288
      4.09000000	     -1.99952044	    -12.06837375	    -79.59675593	      0.30971707	      0.92068487	      0.36876124	    -15.16544233	     11.40591625	      8.34328721	    -25.95519266	     17.59718966	     -6.77598300	     16.04549743	     -5.47346371	     -5.30067550	    -17.89383262	      7.55869507	     -1.89898777	    -15.19115926	      6.69533725	     -4.40360664
      4.10000000	     -1.82156885	    -11.84322102	    -79.99567253	      0.31304808	      0.92058786	      0.37709040	    -15.20660654	     10.92496587	      8.52430363	    -26.62476936	     17.15981290	     -6.30097753	     16.03415523	     -5.11918928	     -5.39039574	    -18.61362675	      6.94037540	     -2.75468956	    -14.93220763	      6.36452701	     -4.51229569
      4.11000000	     -1.60842347	    -11.60367774	    -80.37438233	      0.31637749	      0.92068956	      0.38550083	    -15.19538151	     10.41203597	      8.68791978	    -27.35135550	     16.59872637	     -5.82435987	     16.01823661	     -4.76166768	     -5.58598683	    -19.32305204	      6.35715628	     -3.61638896	    -14.63665781	      5.99697490	     -4.64184862
      4.12000000	     -1.37027668	    -11.37475038	    -80.70261715	      0.31976001	      0.92101644	      0.39402256	    -15.17638677	      9.88177288	      8.76914189	    -28.08902717	     15.85444531	     -5.30388916	     15.98917492	     -4.40577816	     -5.86583103	    -20.04442804	      5.90280594	     -4.49803076	    -14.31979858	      5.61039892	     -4.78774794
      4.13000000	     -1.10221096	    -11.15441996	    -80.98257239	      0.32319636	      0.92157064	      0.40266645	    -15.14205136	      9.32187870	      8.73704879	    -28.83904633	     14.93217743	     -4.72043185	     15.92395084	     -4.03473425	     -6.19477161	    -20.73970169	      5.63057987	     -5.38058981	    -13.97362774	      5.19636911	     -4.95741442
      4.14000000	     -0.81730336	    -10.95028332	    -81.21997428	      0.32667729	      0.92234413	      0.41138618	    -15.08201761	      8.74901943	      8.60029519	    -29.62690639	     13.84247054	     -4.08496855	     15.78748603	     -3.64487126	     -6.50501851	    -21.34975955	      5.55891942	     -6.20635780	    -13.61362424	      4.77438371	     -5.15910380
      4.15000000	     -0.51437461	    -10.75333766	    -81.40573469	      0.33022145	      0.92332151	      0.42019480	    -15.00425653	      8.15586509	      8.34964173	    -30.41179171	     12.57099190	     -3.39469934	     15.58575708	     -3.22209891	     -6.77918449	    -21.87249015	      5.64886729	     -6.96413721	    -13.22264422	      4.34181404	     -5.39098882
      4.16000000	     -0.21513305	    -10.58101371	    -81.56118437	      0.33380056	      0.92448013	      0.42899878	    -14.89081257	      7.55505677	      7.96881914	    -31.24454598	     11.11762635	     -2.61522832	     15.29783526	     -2.78666566	     -7.00368111	    -22.29028153	      5.91960045	     -7.64257713	    -12.83814482	      3.92671218	     -5.62171192
      4.17000000	      0.06920497	    -10.42791512	    -81.69645767	      0.33738948	      0.92578811	      0.43775512	    -14.73140400	      6.95413052	      7.48581354	    -32.12471512	      9.48934919	     -1.72325430	     14.92785789	     -2.34819415	     -7.18398818	    -22.58959857	      6.31200892	     -8.25010495	    -12.45773588	      3.53939963	     -5.85044975
      4.18000000	      0.32238619	    -10.29755074	    -81.82106154	      0.34096796	      0.92720092	      0.44640591	    -14.51963823	      6.36371355	      6.91326870	    -33.06236370	      7.69415744	     -0.79144390	     14.48917690	     -1.93141168	     -7.34606338	    -22.78956874	      6.76283814	     -8.74540509	    -12.09572828	      3.19921958	     -6.06571640
